<svg width="120" height="120" viewBox="0 0 120 120" fill="none" xmlns="http://www.w3.org/2000/svg">
<g clip-path="url(#clip0_34_44)">
<path d="M75 3.75C75 2.75544 74.6049 1.80161 73.9017 1.09835C73.1984 0.395088 72.2446 0 71.25 0L48.75 0C47.7554 0 46.8016 0.395088 46.0984 1.09835C45.3951 1.80161 45 2.75544 45 3.75C45 4.74456 44.6049 5.69839 43.9016 6.40165C43.1984 7.10491 42.2446 7.5 41.25 7.5C40.2554 7.5 39.3016 7.89509 38.5984 8.59835C37.8951 9.30161 37.5 10.2554 37.5 11.25V15C37.5 15.9946 37.8951 16.9484 38.5984 17.6516C39.3016 18.3549 40.2554 18.75 41.25 18.75H78.75C79.7446 18.75 80.6984 18.3549 81.4017 17.6516C82.1049 16.9484 82.5 15.9946 82.5 15V11.25C82.5 10.2554 82.1049 9.30161 81.4017 8.59835C80.6984 7.89509 79.7446 7.5 78.75 7.5C77.7554 7.5 76.8016 7.10491 76.0983 6.40165C75.3951 5.69839 75 4.74456 75 3.75Z" fill="#209FB5"/>
<path d="M30.6375 7.5H26.25C23.2663 7.5 20.4048 8.68526 18.295 10.795C16.1853 12.9048 15 15.7663 15 18.75V108.75C15 111.734 16.1853 114.595 18.295 116.705C20.4048 118.815 23.2663 120 26.25 120H93.75C96.7337 120 99.5952 118.815 101.705 116.705C103.815 114.595 105 111.734 105 108.75V18.75C105 15.7663 103.815 12.9048 101.705 10.795C99.5952 8.68526 96.7337 7.5 93.75 7.5H89.3625C89.7825 8.68 89.995 9.93 90 11.25V15C90 17.9837 88.8147 20.8452 86.705 22.955C84.5952 25.0647 81.7337 26.25 78.75 26.25H41.25C38.2663 26.25 35.4048 25.0647 33.295 22.955C31.1853 20.8452 30 17.9837 30 15V11.25C30.005 9.93 30.2175 8.68 30.6375 7.5ZM74.85 40.17L85.29 75H86.25C87.2446 75 88.1984 75.3951 88.9017 76.0983C89.6049 76.8016 90 77.7554 90 78.75C90 79.7446 89.6049 80.6984 88.9017 81.4017C88.1984 82.1049 87.2446 82.5 86.25 82.5H82.5C81.6937 82.5003 80.9088 82.2407 80.2617 81.7598C79.6146 81.2788 79.1397 80.6021 78.9075 79.83L71.8575 56.3175L63.6675 94.5375C63.4937 95.3519 63.0538 96.0853 62.4171 96.622C61.7804 97.1588 60.9831 97.4683 60.151 97.5018C59.319 97.5354 58.4994 97.291 57.8216 96.8072C57.1438 96.3234 56.6462 95.6278 56.4075 94.83L47.8725 66.375L40.8525 80.4225C40.5418 81.046 40.0636 81.5706 39.4714 81.9376C38.8793 82.3045 38.1966 82.4993 37.5 82.5H33.75C32.7554 82.5 31.8016 82.1049 31.0984 81.4017C30.3951 80.6984 30 79.7446 30 78.75C30 77.7554 30.3951 76.8016 31.0984 76.0983C31.8016 75.3951 32.7554 75 33.75 75H35.1825L45.3975 54.57C45.7337 53.8983 46.2639 53.343 46.9193 52.9761C47.5748 52.6093 48.3253 52.4477 49.0737 52.5123C49.822 52.577 50.5337 52.8649 51.1166 53.3388C51.6994 53.8126 52.1265 54.4506 52.3425 55.17L59.3925 78.6825L67.5825 40.4625C67.7563 39.6481 68.1962 38.9147 68.8329 38.378C69.4696 37.8412 70.2669 37.5317 71.099 37.4982C71.931 37.4646 72.7506 37.709 73.4284 38.1928C74.1062 38.6766 74.6112 39.3722 74.85 40.17Z" fill="#209FB5"/>
</g>
<defs>
<clipPath id="clip0_34_44">
<rect width="120" height="120" fill="white"/>
</clipPath>
</defs>
</svg>
