<svg width="120" height="120" viewBox="0 0 120 120" fill="none" xmlns="http://www.w3.org/2000/svg">
<rect width="120" height="120" fill="#4C4F69"/>
<path d="M52.5 45H67.5V60H82.5V75H67.5V90H52.5V75H37.5V60H52.5V45Z" fill="#209FB5"/>
<path d="M15 7.5C15 5.51088 15.7902 3.60322 17.1967 2.1967C18.6032 0.790176 20.5109 0 22.5 0L97.5 0C99.4891 0 101.397 0.790176 102.803 2.1967C104.21 3.60322 105 5.51088 105 7.5V22.5C105 24.4891 104.21 26.3968 102.803 27.8033C101.397 29.2098 99.4891 30 97.5 30V108.75C97.5 111.734 96.3147 114.595 94.205 116.705C92.0952 118.815 89.2337 120 86.25 120H33.75C30.7663 120 27.9048 118.815 25.795 116.705C23.6853 114.595 22.5 111.734 22.5 108.75V30C20.5109 30 18.6032 29.2098 17.1967 27.8033C15.7902 26.3968 15 24.4891 15 22.5V7.5ZM30 30V108.75C30 109.745 30.3951 110.698 31.0984 111.402C31.8016 112.105 32.7554 112.5 33.75 112.5H86.25C87.2446 112.5 88.1984 112.105 88.9017 111.402C89.6049 110.698 90 109.745 90 108.75V30H30ZM22.5 22.5H97.5V7.5H22.5V22.5Z" fill="#209FB5"/>
</svg>
