<svg width="64" height="64" viewBox="0 0 64 64" fill="none" xmlns="http://www.w3.org/2000/svg">
<path d="M26 58.0036V43.9836C26 43.0036 27 42.0036 28 42.0036H36C37 42.0036 38 43.0036 38 44.0036V58.0036C38 58.534 38.2107 59.0427 38.5858 59.4178C38.9609 59.7929 39.4696 60.0036 40 60.0036H56C56.5304 60.0036 57.0392 59.7929 57.4142 59.4178C57.7893 59.0427 58 58.534 58 58.0036V30.0036C58.0005 29.7408 57.9491 29.4804 57.8489 29.2375C57.7487 28.9945 57.6016 28.7737 57.416 28.5876L52 23.1756V10.0036C52 9.47314 51.7893 8.96444 51.4142 8.58936C51.0392 8.21429 50.5304 8.00358 50 8.00358H46C45.4696 8.00358 44.9609 8.21429 44.5858 8.58936C44.2107 8.96444 44 9.47314 44 10.0036V15.1756L33.416 4.58758C33.2302 4.40132 33.0095 4.25355 32.7665 4.15272C32.5236 4.0519 32.2631 4 32 4C31.7369 4 31.4765 4.0519 31.2335 4.15272C30.9905 4.25355 30.7698 4.40132 30.584 4.58758L6.584 28.5876C6.3984 28.7737 6.25128 28.9945 6.15108 29.2375C6.05087 29.4804 5.99953 29.7408 6 30.0036V58.0036C6 58.534 6.21072 59.0427 6.58579 59.4178C6.96086 59.7929 7.46957 60.0036 8 60.0036H24C24.5304 60.0036 25.0391 59.7929 25.4142 59.4178C25.7893 59.0427 26 58.534 26 58.0036Z" fill="white"/>
</svg>
