<svg width="64" height="64" viewBox="0 0 64 64" fill="none" xmlns="http://www.w3.org/2000/svg">
<path d="M8 8C6.18754 7.99988 4.42875 8.61521 3.01169 9.74523C1.59462 10.8753 0.603273 12.453 0.2 14.22L32 33.656L63.8 14.22C63.3967 12.453 62.4054 10.8753 60.9883 9.74523C59.5712 8.61521 57.8125 7.99988 56 8H8ZM0 47.2V18.792L23.212 32.976L0 47.2ZM27.044 35.32L0.764 51.424C1.41273 52.7939 2.43729 53.9513 3.71835 54.7614C4.99941 55.5716 6.48427 56.0011 8 56H33.024C32.3445 54.0726 31.9983 52.0436 32 50C31.9973 47.3724 32.5711 44.7762 33.6811 42.3945C34.791 40.0129 36.4101 37.9038 38.424 36.216L36.956 35.316L32 38.344L27.044 35.32ZM64 38.684V18.788L40.788 32.972L42.14 33.804C44.5898 32.6159 47.2773 31.9991 50 32C55.656 32 60.7 34.608 64 38.684Z" fill="white"/>
<path d="M63.336 48.976C63.336 53.648 61.028 57.076 56.988 57.076C54.976 57.076 52.98 56.164 52.508 54.484H52.336C51.864 56.148 50.164 57.056 48.276 57.056C45.196 57.056 43.24 54.888 43.24 51.32V49.204C43.24 45.828 45.164 43.604 48.28 43.604C50.62 43.604 51.76 44.936 52.092 46.124H52.212V43.852H55.832V52.612C55.832 53.7 56.552 54.292 57.476 54.292C58.736 54.292 60.032 52.632 60.032 48.732V48.26C60.032 43.152 56.232 38.956 50.096 38.956H49.936C43.608 38.956 39.376 43.224 39.376 49.852V50.48C39.376 57.948 44.324 61.096 49.656 61.096H49.836C51.864 61.096 53.576 60.816 54.556 60.376V63.3C53.68 63.7 51.984 64 49.608 64H49.432C41.752 64 36 59.28 36 50.584V49.728C36 41.44 41.684 36 49.94 36H50.08C58.56 36 63.336 41.72 63.336 48.136V48.976ZM47.176 49.816V50.724C47.176 53.068 48.084 53.924 49.5 53.924C50.74 53.924 51.756 53.244 51.756 50.952V49.484C51.756 47.42 50.656 46.652 49.468 46.652C48.084 46.652 47.176 47.632 47.176 49.816Z" fill="white"/>
</svg>
