<svg width="64" height="64" viewBox="0 0 64 64" fill="none" xmlns="http://www.w3.org/2000/svg">
<g clip-path="url(#clip0_43_274)">
<path d="M64 32C64 40.4869 60.6286 48.6263 54.6274 54.6274C48.6263 60.6286 40.4869 64 32 64C23.5131 64 15.3737 60.6286 9.37258 54.6274C3.37142 48.6263 0 40.4869 0 32C0 23.5131 3.37142 15.3737 9.37258 9.37258C15.3737 3.37142 23.5131 0 32 0C40.4869 0 48.6263 3.37142 54.6274 9.37258C60.6286 15.3737 64 23.5131 64 32ZM33.148 23.624C30.0333 24.92 23.812 27.6 14.484 31.664C12.972 32.264 12.1787 32.8533 12.104 33.432C11.984 34.404 13.204 34.788 14.864 35.312L15.564 35.532C17.196 36.064 19.396 36.684 20.536 36.708C21.576 36.7347 22.7333 36.308 24.008 35.428C32.7253 29.5453 37.224 26.572 37.504 26.508C37.704 26.46 37.984 26.404 38.168 26.572C38.352 26.74 38.336 27.052 38.316 27.136C38.196 27.652 33.408 32.1 30.932 34.404C30.16 35.124 29.612 35.632 29.5 35.748C29.2535 36.0001 29.0027 36.2482 28.748 36.492C27.228 37.956 26.092 39.052 28.808 40.844C30.116 41.708 31.164 42.416 32.208 43.128C33.344 43.904 34.48 44.676 35.952 45.644C36.3253 45.8893 36.6853 46.1387 37.032 46.392C38.356 47.336 39.552 48.184 41.02 48.048C41.876 47.968 42.76 47.168 43.208 44.768C44.268 39.1 46.352 26.824 46.832 21.764C46.8622 21.3434 46.8447 20.9207 46.78 20.504C46.7412 20.168 46.5786 19.8586 46.324 19.636C45.9596 19.3857 45.526 19.2557 45.084 19.264C43.884 19.284 42.032 19.928 33.148 23.624Z" fill="white"/>
</g>
<defs>
<clipPath id="clip0_43_274">
<rect width="64" height="64" fill="white"/>
</clipPath>
</defs>
</svg>
