<svg width="64" height="64" viewBox="0 0 64 64" fill="none" xmlns="http://www.w3.org/2000/svg">
<g clip-path="url(#clip0_34_108)">
<path fill-rule="evenodd" clip-rule="evenodd" d="M7.54188 2.04068C8.24178 1.34184 9.08221 0.799714 10.0075 0.450241C10.9327 0.100768 11.9217 -0.048076 12.9088 0.0135729C13.896 0.0752217 14.8587 0.345956 15.7333 0.807833C16.6079 1.26971 17.3744 1.91219 17.9819 2.69268L25.1619 11.9167C26.4779 13.6087 26.9419 15.8127 26.4219 17.8927L24.2339 26.6527C24.1215 27.1064 24.1281 27.5815 24.2528 28.032C24.3775 28.4825 24.6162 28.8933 24.9459 29.2247L34.7739 39.0527C35.1057 39.383 35.5171 39.6222 35.9684 39.7469C36.4197 39.8716 36.8955 39.8778 37.3499 39.7647L46.1059 37.5767C47.1325 37.3215 48.2035 37.3023 49.2385 37.5206C50.2736 37.7388 51.2457 38.1888 52.0819 38.8367L61.3059 46.0127C64.6219 48.5927 64.9259 53.4927 61.9579 56.4567L57.8219 60.5927C54.8619 63.5527 50.4379 64.8527 46.3139 63.4007C35.7566 59.691 26.172 53.6477 18.2739 45.7207C10.3474 37.8237 4.30409 28.2406 0.593884 17.6847C-0.854116 13.5647 0.445884 9.13668 3.40588 6.17668L7.54188 2.04068Z" fill="white"/>
</g>
<defs>
<clipPath id="clip0_34_108">
<rect width="64" height="64" fill="white"/>
</clipPath>
</defs>
</svg>
