<svg width="49" height="22" viewBox="0 0 49 22" fill="none" xmlns="http://www.w3.org/2000/svg">
<path d="M10.9352 21.875C8.97799 21.8746 7.05669 21.349 5.37179 20.353C3.6869 19.357 2.30013 17.9272 1.35615 16.2126C0.412176 14.498 -0.0544155 12.5616 0.00505036 10.6052C0.0645162 8.64884 0.647861 6.74429 1.69423 5.09021C2.7406 3.43613 4.21165 2.09314 5.95393 1.20134C7.69621 0.30953 9.64588 -0.0984151 11.5996 0.0200584C13.5532 0.138532 15.4393 0.779082 17.0611 1.87489C18.6828 2.97069 19.9808 4.4816 20.8196 6.25H43.7477L48.4352 10.9375L43.7477 15.625L40.6227 12.5L37.4977 15.625L34.3727 12.5L31.2477 15.625L28.1227 12.5L24.9977 15.625H20.8196C19.9324 17.4954 18.5326 19.0756 16.7829 20.182C15.0332 21.2883 13.0054 21.8754 10.9352 21.875ZM7.81024 14.0625C8.63905 14.0625 9.4339 13.7333 10.02 13.1472C10.606 12.5612 10.9352 11.7663 10.9352 10.9375C10.9352 10.1087 10.606 9.31385 10.02 8.72779C9.4339 8.14174 8.63905 7.8125 7.81024 7.8125C6.98144 7.8125 6.18659 8.14174 5.60053 8.72779C5.01448 9.31385 4.68524 10.1087 4.68524 10.9375C4.68524 11.7663 5.01448 12.5612 5.60053 13.1472C6.18659 13.7333 6.98144 14.0625 7.81024 14.0625Z" fill="white"/>
</svg>
