<svg width="120" height="120" viewBox="0 0 120 120" fill="none" xmlns="http://www.w3.org/2000/svg">
<g clip-path="url(#clip0_34_28)">
<rect width="120" height="120" fill="#4C4F69"/>
<path d="M11.0625 67.5C20.265 81.3 35.8425 96.5325 60 112.5C84.1575 96.5325 99.735 81.3 108.937 67.5H90C89.2511 67.4998 88.5194 67.2754 87.8992 66.8557C87.2789 66.4359 86.7986 65.8401 86.52 65.145L75.5925 37.83L63.6075 79.7775C63.3932 80.5298 62.949 81.1962 62.3372 81.6835C61.7253 82.1709 60.9763 82.4546 60.1951 82.4951C59.414 82.5356 58.6397 82.3308 57.9807 81.9094C57.3217 81.488 56.8109 80.8711 56.52 80.145L44.1675 49.26L33.12 65.835C32.777 66.3477 32.3128 66.7679 31.7686 67.0583C31.2244 67.3488 30.6169 67.5005 30 67.5H11.0625Z" fill="#209FB5"/>
<path d="M6.60001 60C-18.2025 12.6 33.075 -15 58.6725 8.57246C59.1225 8.98746 59.5625 9.41496 59.9925 9.85496C60.415 9.41218 60.8554 8.98683 61.3125 8.57996C86.925 -15 138.195 12.6 113.4 60H92.5275L78.4725 24.855C78.1816 24.1289 77.6708 23.5119 77.0118 23.0905C76.3528 22.6691 75.5785 22.4643 74.7974 22.5048C74.0162 22.5453 73.2672 22.8291 72.6554 23.3164C72.0435 23.8037 71.5993 24.4702 71.385 25.2225L59.4075 67.17L48.48 39.855C48.2255 39.2213 47.8028 38.6692 47.2576 38.2581C46.7123 37.8471 46.0651 37.5927 45.3859 37.5225C44.7067 37.4522 44.0212 37.5688 43.4033 37.8596C42.7855 38.1503 42.2588 38.6043 41.88 39.1725L27.99 60H6.60001Z" fill="#209FB5"/>
</g>
<defs>
<clipPath id="clip0_34_28">
<rect width="120" height="120" fill="white"/>
</clipPath>
</defs>
</svg>
