<svg width="120" height="120" viewBox="0 0 120 120" fill="none" xmlns="http://www.w3.org/2000/svg">
<g clip-path="url(#clip0_34_42)">
<path d="M45 0C43.0109 0 41.1032 0.790176 39.6967 2.1967C38.2902 3.60322 37.5 5.51088 37.5 7.5V15C35.5109 15 33.6032 15.7902 32.1967 17.1967C30.7902 18.6032 30 20.5109 30 22.5V52.5H7.5C5.51088 52.5 3.60322 53.2902 2.1967 54.6967C0.790176 56.1032 0 58.0109 0 60L0 112.5C0 114.489 0.790176 116.397 2.1967 117.803C3.60322 119.21 5.51088 120 7.5 120H52.5V101.25C52.5 100.255 52.8951 99.3016 53.5984 98.5983C54.3016 97.8951 55.2554 97.5 56.25 97.5H63.75C64.7446 97.5 65.6984 97.8951 66.4017 98.5983C67.1049 99.3016 67.5 100.255 67.5 101.25V120H112.5C114.489 120 116.397 119.21 117.803 117.803C119.21 116.397 120 114.489 120 112.5V60C120 58.0109 119.21 56.1032 117.803 54.6967C116.397 53.2902 114.489 52.5 112.5 52.5H90V22.5C90 20.5109 89.2098 18.6032 87.8033 17.1967C86.3968 15.7902 84.4891 15 82.5 15V7.5C82.5 5.51088 81.7098 3.60322 80.3033 2.1967C78.8968 0.790176 76.9891 0 75 0L45 0ZM63.75 37.755V46.005L70.8975 41.88L74.6475 48.3825L67.5 52.5L74.6475 56.625L70.8975 63.12L63.75 58.995V67.245H56.25V58.995L49.1025 63.12L45.3525 56.625L52.5 52.5L45.3525 48.375L49.1025 41.88L56.25 46.005V37.755H63.75ZM16.875 67.5H20.625C21.1223 67.5 21.5992 67.6975 21.9508 68.0492C22.3025 68.4008 22.5 68.8777 22.5 69.375V73.125C22.5 73.6223 22.3025 74.0992 21.9508 74.4508C21.5992 74.8025 21.1223 75 20.625 75H16.875C16.3777 75 15.9008 74.8025 15.5492 74.4508C15.1975 74.0992 15 73.6223 15 73.125V69.375C15 68.8777 15.1975 68.4008 15.5492 68.0492C15.9008 67.6975 16.3777 67.5 16.875 67.5ZM16.875 82.5H20.625C21.1223 82.5 21.5992 82.6975 21.9508 83.0492C22.3025 83.4008 22.5 83.8777 22.5 84.375V88.125C22.5 88.6223 22.3025 89.0992 21.9508 89.4508C21.5992 89.8025 21.1223 90 20.625 90H16.875C16.3777 90 15.9008 89.8025 15.5492 89.4508C15.1975 89.0992 15 88.6223 15 88.125V84.375C15 83.8777 15.1975 83.4008 15.5492 83.0492C15.9008 82.6975 16.3777 82.5 16.875 82.5ZM15 99.375C15 98.8777 15.1975 98.4008 15.5492 98.0492C15.9008 97.6975 16.3777 97.5 16.875 97.5H20.625C21.1223 97.5 21.5992 97.6975 21.9508 98.0492C22.3025 98.4008 22.5 98.8777 22.5 99.375V103.125C22.5 103.622 22.3025 104.099 21.9508 104.451C21.5992 104.802 21.1223 105 20.625 105H16.875C16.3777 105 15.9008 104.802 15.5492 104.451C15.1975 104.099 15 103.622 15 103.125V99.375ZM99.375 67.5H103.125C103.622 67.5 104.099 67.6975 104.451 68.0492C104.802 68.4008 105 68.8777 105 69.375V73.125C105 73.6223 104.802 74.0992 104.451 74.4508C104.099 74.8025 103.622 75 103.125 75H99.375C98.8777 75 98.4008 74.8025 98.0492 74.4508C97.6975 74.0992 97.5 73.6223 97.5 73.125V69.375C97.5 68.8777 97.6975 68.4008 98.0492 68.0492C98.4008 67.6975 98.8777 67.5 99.375 67.5ZM97.5 84.375C97.5 83.8777 97.6975 83.4008 98.0492 83.0492C98.4008 82.6975 98.8777 82.5 99.375 82.5H103.125C103.622 82.5 104.099 82.6975 104.451 83.0492C104.802 83.4008 105 83.8777 105 84.375V88.125C105 88.6223 104.802 89.0992 104.451 89.4508C104.099 89.8025 103.622 90 103.125 90H99.375C98.8777 90 98.4008 89.8025 98.0492 89.4508C97.6975 89.0992 97.5 88.6223 97.5 88.125V84.375ZM99.375 97.5H103.125C103.622 97.5 104.099 97.6975 104.451 98.0492C104.802 98.4008 105 98.8777 105 99.375V103.125C105 103.622 104.802 104.099 104.451 104.451C104.099 104.802 103.622 105 103.125 105H99.375C98.8777 105 98.4008 104.802 98.0492 104.451C97.6975 104.099 97.5 103.622 97.5 103.125V99.375C97.5 98.8777 97.6975 98.4008 98.0492 98.0492C98.4008 97.6975 98.8777 97.5 99.375 97.5Z" fill="#209FB5"/>
</g>
<defs>
<clipPath id="clip0_34_42">
<rect width="120" height="120" fill="white"/>
</clipPath>
</defs>
</svg>
