<svg width="38" height="38" viewBox="0 0 38 38" fill="none" xmlns="http://www.w3.org/2000/svg">
<path d="M3.125 37.5C3.125 37.5 0 37.5 0 34.375C0 31.25 3.125 21.875 18.75 21.875C34.375 21.875 37.5 31.25 37.5 34.375C37.5 37.5 34.375 37.5 34.375 37.5H3.125ZM18.75 18.75C21.2364 18.75 23.621 17.7623 25.3791 16.0041C27.1373 14.246 28.125 11.8614 28.125 9.375C28.125 6.8886 27.1373 4.50403 25.3791 2.74587C23.621 0.987721 21.2364 0 18.75 0C16.2636 0 13.879 0.987721 12.1209 2.74587C10.3627 4.50403 9.375 6.8886 9.375 9.375C9.375 11.8614 10.3627 14.246 12.1209 16.0041C13.879 17.7623 16.2636 18.75 18.75 18.75Z" fill="white"/>
</svg>
